<?xml version="1.0" encoding="UTF-8"?>
<!DOCTYPE svg PUBLIC "-//W3C//DTD SVG 1.1//EN" "http://www.w3.org/Graphics/SVG/1.1/DTD/svg11.dtd">
<svg xmlns="http://www.w3.org/2000/svg" version="1.1" width="512px" height="512px" style="shape-rendering:geometricPrecision; text-rendering:geometricPrecision; image-rendering:optimizeQuality; fill-rule:evenodd; clip-rule:evenodd" xmlns:xlink="http://www.w3.org/1999/xlink">
<g><path style="opacity:1" fill="#fefefe" d="M -0.5,-0.5 C 170.167,-0.5 340.833,-0.5 511.5,-0.5C 511.5,170.167 511.5,340.833 511.5,511.5C 490.833,511.5 470.167,511.5 449.5,511.5C 449.672,510.508 449.338,509.842 448.5,509.5C 448.291,508.078 447.791,506.745 447,505.5C 442.333,501.5 437.667,497.5 433,493.5C 431.633,489.3 431.133,484.967 431.5,480.5C 432.833,480.5 434.167,480.5 435.5,480.5C 440.975,481.489 446.642,481.822 452.5,481.5C 452.5,480.167 452.5,478.833 452.5,477.5C 458.889,421.277 464.389,364.944 469,308.5C 469.667,295.167 469.667,281.833 469,268.5C 468.471,265.053 467.638,261.719 466.5,258.5C 469.784,256.883 472.451,254.55 474.5,251.5C 485.797,241.372 496.963,231.039 508,220.5C 511.949,213.703 510.783,207.87 504.5,203C 488.5,191.667 472.5,180.333 456.5,169C 449.527,166.398 442.527,163.898 435.5,161.5C 434.51,157.895 433.844,154.228 433.5,150.5C 432.997,146.317 432.331,142.151 431.5,138C 431.833,137.167 432.167,136.333 432.5,135.5C 438.398,133.716 440.732,129.716 439.5,123.5C 440.477,120.713 440.81,117.713 440.5,114.5C 456.928,117.03 464.095,110.03 462,93.5C 456.791,84.1373 449.291,81.4706 439.5,85.5C 438.198,82.8934 438.364,80.2268 440,77.5C 444.927,75.1725 450.093,73.3391 455.5,72C 458.504,68.8278 459.004,65.3278 457,61.5C 453.919,58.7069 450.419,56.5403 446.5,55C 444.438,53.4675 443.104,51.4675 442.5,49C 444.02,44.7932 446.186,40.9599 449,37.5C 450.898,30.9379 448.565,27.2713 442,26.5C 437.884,27.029 433.884,28.029 430,29.5C 426.601,29.265 424.268,27.5984 423,24.5C 422.333,21.1667 421.667,17.8333 421,14.5C 418.087,9.31057 413.92,8.1439 408.5,11C 405.981,15.7193 402.981,20.0526 399.5,24C 397.5,24.6667 395.5,24.6667 393.5,24C 389.793,20.9621 385.626,18.7955 381,17.5C 376.646,18.3553 374.146,21.022 373.5,25.5C 375.928,30.6071 376.762,35.9404 376,41.5C 375.167,42.3333 374.333,43.1667 373.5,44C 368.752,45.0822 364.085,46.4155 359.5,48C 355.587,51.8776 355.587,55.711 359.5,59.5C 363.417,61.7078 367.25,64.0411 371,66.5C 371.813,68.4357 372.313,70.4357 372.5,72.5C 320.833,72.5 269.167,72.5 217.5,72.5C 217.5,66.8333 217.5,61.1667 217.5,55.5C 217.666,50.1563 217.499,44.8229 217,39.5C 215.833,37 214,35.1667 211.5,34C 179.167,33.3333 146.833,33.3333 114.5,34C 109.975,36.8851 107.975,41.0517 108.5,46.5C 95.2485,52.3388 89.9151,62.3388 92.5,76.5C 90.8402,78.322 89.8402,80.4887 89.5,83C 90.5691,86.5457 92.2357,89.7123 94.5,92.5C 93.3193,100.826 92.3193,109.159 91.5,117.5C 83.6181,117.316 75.9515,118.483 68.5,121C 62.0852,123.472 55.7519,126.138 49.5,129C 43.6378,132.885 40.4711,138.385 40,145.5C 39.4167,158.5 38.9167,171.5 38.5,184.5C 37.5269,186.948 37.1936,189.615 37.5,192.5C 36.0605,196.406 35.3938,200.573 35.5,205C 35.5029,207.69 35.8362,210.19 36.5,212.5C 31.8957,223.846 35.229,232.013 46.5,237C 49.8881,237.659 53.2214,237.492 56.5,236.5C 56.7073,239.241 57.7073,241.574 59.5,243.5C 58.967,251.652 58.6337,259.818 58.5,268C 59.7276,291.825 60.7276,315.658 61.5,339.5C 42.8304,339.333 24.1637,339.5 5.5,340C 2.97739,341.36 0.977392,343.193 -0.5,345.5C -0.5,230.167 -0.5,114.833 -0.5,-0.5 Z"/></g>
<g><path style="opacity:1" fill="#f6f6f6" d="M 322.5,0.5 C 325.325,0.0807292 327.491,1.08073 329,3.5C 329.479,6.62373 330.646,9.45706 332.5,12C 336.598,12.4718 340.598,11.9718 344.5,10.5C 348.989,10.8333 350.489,13.1666 349,17.5C 347.833,19.8333 346.667,22.1667 345.5,24.5C 346.128,26.2581 347.128,27.7581 348.5,29C 360.611,34.3664 360.278,39.0331 347.5,43C 346.128,44.2419 345.128,45.7419 344.5,47.5C 345.647,50.2919 346.647,53.1252 347.5,56C 347.4,59.2664 345.733,61.0997 342.5,61.5C 338.934,59.7005 335.267,58.5338 331.5,58C 330.584,58.3742 329.75,58.8742 329,59.5C 323.385,72.8869 318.385,72.5535 314,58.5C 312.915,57.7069 311.748,57.0402 310.5,56.5C 296.35,62.1814 293.016,58.3481 300.5,45C 298.189,41.3234 294.856,38.8234 290.5,37.5C 287.665,34.3295 287.998,31.4962 291.5,29C 296.358,28.5919 299.691,26.2585 301.5,22C 300.078,19.3217 299.078,16.4883 298.5,13.5C 298.39,11.626 299.056,10.126 300.5,9C 305.44,9.96264 310.44,10.6293 315.5,11C 317.389,7.08131 319.723,3.58131 322.5,0.5 Z"/></g>
<g><path style="opacity:1" fill="#f4f4f4" d="M 439.5,85.5 C 435.709,89.0596 432.375,93.0596 429.5,97.5C 418.801,91.6148 408.801,92.6148 399.5,100.5C 398.079,86.2458 390.412,77.4125 376.5,74C 320.167,73.3333 263.833,73.3333 207.5,74C 198.411,76.9257 192.077,82.7591 188.5,91.5C 171.5,91.5 154.5,91.5 137.5,91.5C 137.784,89.5853 137.451,87.9187 136.5,86.5C 136.987,85.5266 137.487,84.5266 138,83.5C 138.499,77.5092 138.666,71.5092 138.5,65.5C 138.353,62.2084 137.353,59.2084 135.5,56.5C 162.662,55.5021 189.995,55.1688 217.5,55.5C 217.5,61.1667 217.5,66.8333 217.5,72.5C 269.167,72.5 320.833,72.5 372.5,72.5C 372.313,70.4357 371.813,68.4357 371,66.5C 367.25,64.0411 363.417,61.7078 359.5,59.5C 355.587,55.711 355.587,51.8776 359.5,48C 364.085,46.4155 368.752,45.0822 373.5,44C 374.333,43.1667 375.167,42.3333 376,41.5C 376.762,35.9404 375.928,30.6071 373.5,25.5C 374.146,21.022 376.646,18.3553 381,17.5C 385.626,18.7955 389.793,20.9621 393.5,24C 395.5,24.6667 397.5,24.6667 399.5,24C 402.981,20.0526 405.981,15.7193 408.5,11C 413.92,8.1439 418.087,9.31057 421,14.5C 421.667,17.8333 422.333,21.1667 423,24.5C 424.268,27.5984 426.601,29.265 430,29.5C 433.884,28.029 437.884,27.029 442,26.5C 448.565,27.2713 450.898,30.9379 449,37.5C 446.186,40.9599 444.02,44.7932 442.5,49C 443.104,51.4675 444.438,53.4675 446.5,55C 450.419,56.5403 453.919,58.7069 457,61.5C 459.004,65.3278 458.504,68.8278 455.5,72C 450.093,73.3391 444.927,75.1725 440,77.5C 438.364,80.2268 438.198,82.8934 439.5,85.5 Z"/></g>
<g><path style="opacity:1" fill="#e0e0e0" d="M 217.5,55.5 C 189.995,55.1688 162.662,55.5021 135.5,56.5C 132.117,51.6273 127.45,48.4606 121.5,47C 117.179,46.501 112.846,46.3343 108.5,46.5C 107.975,41.0517 109.975,36.8851 114.5,34C 146.833,33.3333 179.167,33.3333 211.5,34C 214,35.1667 215.833,37 217,39.5C 217.499,44.8229 217.666,50.1563 217.5,55.5 Z"/></g>
<g><path style="opacity:1" fill="#fefefe" d="M 404.5,41.5 C 420.138,41.9719 426.972,49.9719 425,65.5C 420.5,76.1667 412.667,80 401.5,77C 389.22,70.4834 386.387,60.9834 393,48.5C 396.225,44.9793 400.058,42.646 404.5,41.5 Z"/></g>
<g><path style="opacity:1" fill="#2d363b" d="M 108.5,46.5 C 112.846,46.3343 117.179,46.501 121.5,47C 127.45,48.4606 132.117,51.6273 135.5,56.5C 137.353,59.2084 138.353,62.2084 138.5,65.5C 137.379,63.2585 136.213,60.9252 135,58.5C 132.649,59.7143 130.149,60.5477 127.5,61C 120.962,61.7752 114.462,61.6086 108,60.5C 107.055,60.9054 106.388,61.572 106,62.5C 98.8514,84.7023 107.018,94.2023 130.5,91C 133.229,90.4339 135.229,88.9339 136.5,86.5C 137.451,87.9187 137.784,89.5853 137.5,91.5C 137.409,100.897 133.075,107.23 124.5,110.5C 115.717,112.538 108.551,109.871 103,102.5C 100.634,98.9636 98.4674,95.297 96.5,91.5C 99.1419,86.3654 99.1419,81.1988 96.5,76C 95.0715,75.4209 93.7382,75.5876 92.5,76.5C 89.9151,62.3388 95.2485,52.3388 108.5,46.5 Z"/></g>
<g><path style="opacity:1" fill="#f2bea1" d="M 138.5,65.5 C 138.666,71.5092 138.499,77.5092 138,83.5C 137.487,84.5266 136.987,85.5266 136.5,86.5C 135.229,88.9339 133.229,90.4339 130.5,91C 107.018,94.2023 98.8514,84.7023 106,62.5C 106.388,61.572 107.055,60.9054 108,60.5C 114.462,61.6086 120.962,61.7752 127.5,61C 130.149,60.5477 132.649,59.7143 135,58.5C 136.213,60.9252 137.379,63.2585 138.5,65.5 Z"/></g>
<g><path style="opacity:1" fill="#e1e1e1" d="M 399.5,100.5 C 398.85,102.435 398.517,104.435 398.5,106.5C 395.933,116.945 395.1,127.612 396,138.5C 397.163,145.813 401.33,150.48 408.5,152.5C 409.298,152.957 409.631,153.624 409.5,154.5C 409.5,156.5 409.5,158.5 409.5,160.5C 402.835,161.5 396.168,162.5 389.5,163.5C 389.969,140.101 389.469,116.768 388,93.5C 384.849,87.6832 380.016,84.1832 373.5,83C 364.833,82.3333 356.167,82.3333 347.5,83C 347.614,90.3617 344.28,95.3617 337.5,98C 307.5,98.6667 277.5,98.6667 247.5,98C 241.54,94.7978 238.54,89.7978 238.5,83C 229.833,82.3333 221.167,82.3333 212.5,83C 204.837,84.6645 199.67,89.1645 197,96.5C 196.179,117.24 196.346,137.906 197.5,158.5C 196.761,158.631 196.094,158.464 195.5,158C 192.041,154.229 188.708,150.395 185.5,146.5C 186.332,129.672 186.832,112.672 187,95.5C 187.41,94.0993 187.91,92.766 188.5,91.5C 192.077,82.7591 198.411,76.9257 207.5,74C 263.833,73.3333 320.167,73.3333 376.5,74C 390.412,77.4125 398.079,86.2458 399.5,100.5 Z"/></g>
<g><path style="opacity:1" fill="#f4f4f4" d="M 389.5,163.5 C 384.956,165.026 381.789,168.026 380,172.5C 380.744,209.65 378.91,246.65 374.5,283.5C 371.578,295.268 368.245,306.935 364.5,318.5C 363.504,305.01 363.171,291.344 363.5,277.5C 353.833,277.5 344.167,277.5 334.5,277.5C 334.5,316.167 334.5,354.833 334.5,393.5C 336.415,393.216 338.081,393.549 339.5,394.5C 330.766,421.703 322.433,449.036 314.5,476.5C 316.833,476.5 319.167,476.5 321.5,476.5C 317.811,488.856 309.811,496.856 297.5,500.5C 268.165,500.667 238.831,500.5 209.5,500C 204.09,498.257 200.256,494.757 198,489.5C 196.507,394.224 196.007,298.89 196.5,203.5C 201.121,204.709 205.787,204.709 210.5,203.5C 211.479,206.625 211.813,209.958 211.5,213.5C 264.833,213.5 318.167,213.5 371.5,213.5C 371.5,186.167 371.5,158.833 371.5,131.5C 342.167,131.5 312.833,131.5 283.5,131.5C 276.393,129.237 269.06,128.071 261.5,128C 262.727,126.413 262.394,125.079 260.5,124C 258.966,123.077 257.299,122.577 255.5,122.5C 248.616,124.314 241.616,125.481 234.5,126C 232.246,127.377 230.08,128.877 228,130.5C 220.209,142.438 211.709,153.771 202.5,164.5C 200.804,162.475 199.137,160.475 197.5,158.5C 196.346,137.906 196.179,117.24 197,96.5C 199.67,89.1645 204.837,84.6645 212.5,83C 221.167,82.3333 229.833,82.3333 238.5,83C 238.54,89.7978 241.54,94.7978 247.5,98C 277.5,98.6667 307.5,98.6667 337.5,98C 344.28,95.3617 347.614,90.3617 347.5,83C 356.167,82.3333 364.833,82.3333 373.5,83C 380.016,84.1832 384.849,87.6832 388,93.5C 389.469,116.768 389.969,140.101 389.5,163.5 Z"/></g>
<g><path style="opacity:1" fill="#2b3439" d="M 439.5,123.5 C 433.943,118.732 430.61,120.066 429.5,127.5C 427.416,124.169 426.416,120.503 426.5,116.5C 418.374,117.147 410.707,115.647 403.5,112C 401.598,110.27 399.931,108.437 398.5,106.5C 398.517,104.435 398.85,102.435 399.5,100.5C 408.801,92.6148 418.801,91.6148 429.5,97.5C 432.375,93.0596 435.709,89.0596 439.5,85.5C 449.291,81.4706 456.791,84.1373 462,93.5C 464.095,110.03 456.928,117.03 440.5,114.5C 440.81,117.713 440.477,120.713 439.5,123.5 Z"/></g>
<g><path style="opacity:1" fill="#f2bea2" d="M 124.5,110.5 C 124.5,112.167 124.5,113.833 124.5,115.5C 125.308,131.861 117.641,139.028 101.5,137C 93.3498,133.09 90.0164,126.59 91.5,117.5C 92.3193,109.159 93.3193,100.826 94.5,92.5C 92.2357,89.7123 90.5691,86.5457 89.5,83C 89.8402,80.4887 90.8402,78.322 92.5,76.5C 93.7382,75.5876 95.0715,75.4209 96.5,76C 99.1419,81.1988 99.1419,86.3654 96.5,91.5C 98.4674,95.297 100.634,98.9636 103,102.5C 108.551,109.871 115.717,112.538 124.5,110.5 Z"/></g>
<g><path style="opacity:1" fill="#fdfdfd" d="M 137.5,91.5 C 154.5,91.5 171.5,91.5 188.5,91.5C 187.91,92.766 187.41,94.0993 187,95.5C 186.832,112.672 186.332,129.672 185.5,146.5C 178.008,138.508 170.342,130.675 162.5,123C 150.356,117.955 137.689,115.455 124.5,115.5C 124.5,113.833 124.5,112.167 124.5,110.5C 133.075,107.23 137.409,100.897 137.5,91.5 Z"/></g>
<g><path style="opacity:1" fill="#e8b99e" d="M 115.5,95.5 C 120.844,95.334 126.177,95.5006 131.5,96C 132.428,100.077 130.761,102.077 126.5,102C 125.646,100.978 124.646,100.145 123.5,99.5C 118.085,104.112 115.418,102.778 115.5,95.5 Z"/></g>
<g><path style="opacity:1" fill="#f3bfa2" d="M 398.5,106.5 C 399.931,108.437 401.598,110.27 403.5,112C 410.707,115.647 418.374,117.147 426.5,116.5C 426.416,120.503 427.416,124.169 429.5,127.5C 430.61,120.066 433.943,118.732 439.5,123.5C 440.732,129.716 438.398,133.716 432.5,135.5C 432.167,136.333 431.833,137.167 431.5,138C 432.331,142.151 432.997,146.317 433.5,150.5C 431.249,155.138 427.583,158.138 422.5,159.5C 419.833,159.5 417.167,159.5 414.5,159.5C 412.473,158.139 410.806,156.473 409.5,154.5C 409.631,153.624 409.298,152.957 408.5,152.5C 401.33,150.48 397.163,145.813 396,138.5C 395.1,127.612 395.933,116.945 398.5,106.5 Z"/></g>
<g><path style="opacity:1" fill="#1f2a87" d="M 124.5,115.5 C 137.689,115.455 150.356,117.955 162.5,123C 170.342,130.675 178.008,138.508 185.5,146.5C 188.708,150.395 192.041,154.229 195.5,158C 196.094,158.464 196.761,158.631 197.5,158.5C 199.137,160.475 200.804,162.475 202.5,164.5C 197.833,175.167 193.167,185.833 188.5,196.5C 187.609,197.11 186.609,197.443 185.5,197.5C 179.441,192.443 174.107,186.776 169.5,180.5C 177.516,175.665 184.849,169.832 191.5,163C 190.833,162.333 190.167,162.333 189.5,163C 183.251,169.09 176.584,174.59 169.5,179.5C 166.141,176.471 162.808,173.471 159.5,170.5C 159.617,163.284 160.283,156.118 161.5,149C 161.167,148.167 160.833,147.333 160.5,146.5C 159.171,153.616 158.171,160.783 157.5,168C 157.528,169.07 157.861,169.903 158.5,170.5C 156.066,197.838 153.566,225.171 151,252.5C 150.28,254.056 149.113,255.056 147.5,255.5C 117.447,256.384 88.1134,252.384 59.5,243.5C 57.7073,241.574 56.7073,239.241 56.5,236.5C 61.1717,233.994 64.6717,230.327 67,225.5C 67.7652,219.183 68.2652,212.849 68.5,206.5C 69.4345,205.432 69.7678,204.099 69.5,202.5C 69.5,201.5 69.5,200.5 69.5,199.5C 71.0444,204.606 72.0444,209.939 72.5,215.5C 90.8333,215.5 109.167,215.5 127.5,215.5C 126.184,199.451 124.35,183.451 122,167.5C 121.006,159.525 119.506,151.692 117.5,144C 99.5,143.333 81.5,143.333 63.5,144C 62.9781,144.561 62.6448,145.228 62.5,146C 64.0827,152.541 64.7494,159.041 64.5,165.5C 61.1667,167.167 57.8333,168.833 54.5,170.5C 54.1161,163.443 53.2828,156.443 52,149.5C 51.7476,156.889 52.2476,164.223 53.5,171.5C 51.8322,178.195 50.1655,184.862 48.5,191.5C 45.1667,191.5 41.8333,191.5 38.5,191.5C 38.5,189.167 38.5,186.833 38.5,184.5C 38.9167,171.5 39.4167,158.5 40,145.5C 40.4711,138.385 43.6378,132.885 49.5,129C 55.7519,126.138 62.0852,123.472 68.5,121C 75.9515,118.483 83.6181,117.316 91.5,117.5C 90.0164,126.59 93.3498,133.09 101.5,137C 117.641,139.028 125.308,131.861 124.5,115.5 Z"/></g>
<g><path style="opacity:1" fill="#f3bfa1" d="M 283.5,131.5 C 284.624,133.731 285.124,136.064 285,138.5C 282.841,139.155 281.341,140.488 280.5,142.5C 273.835,143.886 267.168,145.386 260.5,147C 255.167,147.333 249.833,147.667 244.5,148C 236.761,161.314 229.427,174.814 222.5,188.5C 220.19,191.102 218.357,194.102 217,197.5C 214.937,199.734 212.771,201.734 210.5,203.5C 205.787,204.709 201.121,204.709 196.5,203.5C 193.752,201.147 191.086,198.814 188.5,196.5C 193.167,185.833 197.833,175.167 202.5,164.5C 211.709,153.771 220.209,142.438 228,130.5C 230.08,128.877 232.246,127.377 234.5,126C 241.616,125.481 248.616,124.314 255.5,122.5C 257.299,122.577 258.966,123.077 260.5,124C 262.394,125.079 262.727,126.413 261.5,128C 269.06,128.071 276.393,129.237 283.5,131.5 Z"/></g>
<g><path style="opacity:1" fill="#625a55" d="M 246.5,127.5 C 250.943,127.277 255.61,127.277 260.5,127.5C 260.5,128.833 260.5,130.167 260.5,131.5C 267.014,131.045 273.347,131.545 279.5,133C 273.188,132.892 266.855,132.725 260.5,132.5C 260.5,133.5 260.5,134.5 260.5,135.5C 266.021,135.054 271.355,135.554 276.5,137C 272.314,137.573 268.147,137.406 264,136.5C 262.833,136.833 261.667,137.167 260.5,137.5C 264.459,138.327 268.459,138.827 272.5,139C 267.971,139.908 263.471,140.741 259,141.5C 258.501,137.514 258.334,133.514 258.5,129.5C 254.295,129.809 250.295,129.143 246.5,127.5 Z"/></g>
<g><path style="opacity:1" fill="#e2e2e2" d="M 283.5,131.5 C 312.833,131.5 342.167,131.5 371.5,131.5C 371.5,158.833 371.5,186.167 371.5,213.5C 318.167,213.5 264.833,213.5 211.5,213.5C 211.813,209.958 211.479,206.625 210.5,203.5C 212.771,201.734 214.937,199.734 217,197.5C 218.357,194.102 220.19,191.102 222.5,188.5C 230.47,178.351 238.303,168.018 246,157.5C 250.64,164.307 255.473,170.973 260.5,177.5C 263.527,175.14 266.194,172.473 268.5,169.5C 275.517,175.683 282.017,182.35 288,189.5C 288.5,173.837 288.667,158.17 288.5,142.5C 285.833,142.5 283.167,142.5 280.5,142.5C 281.341,140.488 282.841,139.155 285,138.5C 285.124,136.064 284.624,133.731 283.5,131.5 Z"/></g>
<g><path style="opacity:1" fill="#f2f2f2" d="M 280.5,142.5 C 283.167,142.5 285.833,142.5 288.5,142.5C 288.667,158.17 288.5,173.837 288,189.5C 282.017,182.35 275.517,175.683 268.5,169.5C 266.194,172.473 263.527,175.14 260.5,177.5C 255.473,170.973 250.64,164.307 246,157.5C 238.303,168.018 230.47,178.351 222.5,188.5C 229.427,174.814 236.761,161.314 244.5,148C 249.833,147.667 255.167,147.333 260.5,147C 267.168,145.386 273.835,143.886 280.5,142.5 Z"/></g>
<g><path style="opacity:1" fill="#293238" d="M 69.5,199.5 C 69.33,198.178 69.6634,197.011 70.5,196C 74.4057,194.125 77.9057,191.625 81,188.5C 81.5074,187.004 81.0074,185.837 79.5,185C 81.2273,183.611 82.5606,181.944 83.5,180C 82.9777,179.05 82.311,178.216 81.5,177.5C 83.0234,175.414 82.69,173.748 80.5,172.5C 75.8375,173.836 71.1708,174.17 66.5,173.5C 66.7093,172.914 67.0426,172.414 67.5,172C 71.2222,171.762 74.8889,171.262 78.5,170.5C 79.4287,169.311 79.762,167.978 79.5,166.5C 74.5275,165.836 69.5275,165.503 64.5,165.5C 64.7494,159.041 64.0827,152.541 62.5,146C 62.6448,145.228 62.9781,144.561 63.5,144C 81.5,143.333 99.5,143.333 117.5,144C 119.506,151.692 121.006,159.525 122,167.5C 124.35,183.451 126.184,199.451 127.5,215.5C 109.167,215.5 90.8333,215.5 72.5,215.5C 72.0444,209.939 71.0444,204.606 69.5,199.5 Z"/></g>
<g><path style="opacity:1" fill="#1e2987" d="M 433.5,150.5 C 433.844,154.228 434.51,157.895 435.5,161.5C 442.527,163.898 449.527,166.398 456.5,169C 472.5,180.333 488.5,191.667 504.5,203C 510.783,207.87 511.949,213.703 508,220.5C 496.963,231.039 485.797,241.372 474.5,251.5C 471.84,245.506 467.506,241.173 461.5,238.5C 466.699,231.286 472.032,224.119 477.5,217C 470.18,211.338 462.513,206.172 454.5,201.5C 451.762,198.446 448.429,196.113 444.5,194.5C 443.304,194.846 443.304,195.346 444.5,196C 447.528,197.844 450.528,199.678 453.5,201.5C 451.442,211.008 448.775,220.341 445.5,229.5C 442.19,236.584 437.524,242.751 431.5,248C 426.069,251.641 420.069,253.141 413.5,252.5C 413.502,247.5 412.502,242.833 410.5,238.5C 407.339,221.371 407.839,204.371 412,187.5C 413.471,183.419 415.138,179.419 417,175.5C 417.499,170.511 417.666,165.511 417.5,160.5C 419.415,160.784 421.081,160.451 422.5,159.5C 427.583,158.138 431.249,155.138 433.5,150.5 Z"/></g>
<g><path style="opacity:1" fill="#27304d" d="M 54.5,170.5 C 54.5,171.167 54.1667,171.5 53.5,171.5C 52.2476,164.223 51.7476,156.889 52,149.5C 53.2828,156.443 54.1161,163.443 54.5,170.5 Z"/></g>
<g><path style="opacity:1" fill="#1f2a87" d="M 409.5,154.5 C 410.806,156.473 412.473,158.139 414.5,159.5C 416.523,164.202 417.023,169.202 416,174.5C 405.892,195.235 404.058,216.568 410.5,238.5C 410.951,243.229 411.451,247.895 412,252.5C 404.766,250.098 399.599,245.432 396.5,238.5C 393.769,232.804 391.935,226.804 391,220.5C 390.282,209.085 390.615,197.752 392,186.5C 388.212,198.24 387.545,210.24 390,222.5C 390.934,228.677 392.434,234.677 394.5,240.5C 385.906,253.953 379.24,268.286 374.5,283.5C 378.91,246.65 380.744,209.65 380,172.5C 381.789,168.026 384.956,165.026 389.5,163.5C 396.168,162.5 402.835,161.5 409.5,160.5C 409.5,158.5 409.5,156.5 409.5,154.5 Z"/></g>
<g><path style="opacity:1" fill="#283051" d="M 159.5,170.5 C 159.167,170.5 158.833,170.5 158.5,170.5C 157.861,169.903 157.528,169.07 157.5,168C 158.171,160.783 159.171,153.616 160.5,146.5C 160.833,147.333 161.167,148.167 161.5,149C 160.283,156.118 159.617,163.284 159.5,170.5 Z"/></g>
<g><path style="opacity:1" fill="#f2bea1" d="M 64.5,165.5 C 69.5275,165.503 74.5275,165.836 79.5,166.5C 79.762,167.978 79.4287,169.311 78.5,170.5C 74.8889,171.262 71.2222,171.762 67.5,172C 67.0426,172.414 66.7093,172.914 66.5,173.5C 71.1708,174.17 75.8375,173.836 80.5,172.5C 82.69,173.748 83.0234,175.414 81.5,177.5C 82.311,178.216 82.9777,179.05 83.5,180C 82.5606,181.944 81.2273,183.611 79.5,185C 81.0074,185.837 81.5074,187.004 81,188.5C 77.9057,191.625 74.4057,194.125 70.5,196C 69.6634,197.011 69.33,198.178 69.5,199.5C 69.5,200.5 69.5,201.5 69.5,202.5C 66.2139,203.207 62.8806,203.54 59.5,203.5C 62.2301,204.817 65.0635,204.817 68,203.5C 68.4828,204.448 68.6495,205.448 68.5,206.5C 68.2652,212.849 67.7652,219.183 67,225.5C 64.6717,230.327 61.1717,233.994 56.5,236.5C 53.2214,237.492 49.8881,237.659 46.5,237C 35.229,232.013 31.8957,223.846 36.5,212.5C 39.8333,206.5 43.1667,200.5 46.5,194.5C 47.4013,193.71 48.0679,192.71 48.5,191.5C 50.1655,184.862 51.8322,178.195 53.5,171.5C 54.1667,171.5 54.5,171.167 54.5,170.5C 57.8333,168.833 61.1667,167.167 64.5,165.5 Z"/></g>
<g><path style="opacity:1" fill="#fefefe" d="M 158.5,170.5 C 158.833,170.5 159.167,170.5 159.5,170.5C 162.808,173.471 166.141,176.471 169.5,179.5C 169.5,179.833 169.5,180.167 169.5,180.5C 174.107,186.776 179.441,192.443 185.5,197.5C 186.009,295.132 186.843,392.799 188,490.5C 191.741,501.294 199.241,507.794 210.5,510C 236.831,510.5 263.165,510.667 289.5,510.5C 289.5,510.833 289.5,511.167 289.5,511.5C 255.5,511.5 221.5,511.5 187.5,511.5C 189.969,507.314 189.469,503.314 186,499.5C 179.084,495.591 172.418,491.258 166,486.5C 164.553,482.215 161.719,479.548 157.5,478.5C 156.909,477.849 156.243,477.182 155.5,476.5C 156.602,475.824 157.602,475.158 158.5,474.5C 159.392,401.26 155.726,328.26 147.5,255.5C 149.113,255.056 150.28,254.056 151,252.5C 153.566,225.171 156.066,197.838 158.5,170.5 Z"/></g>
<g><path style="opacity:1" fill="#272f48" d="M 169.5,180.5 C 169.5,180.167 169.5,179.833 169.5,179.5C 176.584,174.59 183.251,169.09 189.5,163C 190.167,162.333 190.833,162.333 191.5,163C 184.849,169.832 177.516,175.665 169.5,180.5 Z"/></g>
<g><path style="opacity:1" fill="#534f4d" d="M 77.5,177.5 C 79.7349,178.248 79.4016,179.081 76.5,180C 72.6733,181.957 68.6733,182.957 64.5,183C 69.011,181.445 73.3444,179.612 77.5,177.5 Z"/></g>
<g><path style="opacity:1" fill="#605854" d="M 75.5,185.5 C 76.552,185.351 77.552,185.517 78.5,186C 73.8254,188.784 68.8254,190.117 63.5,190C 67.8075,189.054 71.8075,187.554 75.5,185.5 Z"/></g>
<g><path style="opacity:1" fill="#f4f4f4" d="M 221.5,190.5 C 243.833,190.5 266.167,190.5 288.5,190.5C 288.5,194.833 288.5,199.167 288.5,203.5C 266.167,203.5 243.833,203.5 221.5,203.5C 221.5,199.167 221.5,194.833 221.5,190.5 Z"/></g>
<g><path style="opacity:1" fill="#3e4560" d="M 38.5,184.5 C 38.5,186.833 38.5,189.167 38.5,191.5C 41.8333,191.5 45.1667,191.5 48.5,191.5C 48.0679,192.71 47.4013,193.71 46.5,194.5C 43.8291,192.882 40.8291,192.215 37.5,192.5C 37.1936,189.615 37.5269,186.948 38.5,184.5 Z"/></g>
<g><path style="opacity:1" fill="#2a318a" d="M 37.5,192.5 C 40.8291,192.215 43.8291,192.882 46.5,194.5C 43.1667,200.5 39.8333,206.5 36.5,212.5C 35.8362,210.19 35.5029,207.69 35.5,205C 35.3938,200.573 36.0605,196.406 37.5,192.5 Z"/></g>
<g><path style="opacity:1" fill="#2d3350" d="M 414.5,159.5 C 417.167,159.5 419.833,159.5 422.5,159.5C 421.081,160.451 419.415,160.784 417.5,160.5C 417.666,165.511 417.499,170.511 417,175.5C 415.138,179.419 413.471,183.419 412,187.5C 407.839,204.371 407.339,221.371 410.5,238.5C 404.058,216.568 405.892,195.235 416,174.5C 417.023,169.202 416.523,164.202 414.5,159.5 Z"/></g>
<g><path style="opacity:1" fill="#e0e0e0" d="M 188.5,196.5 C 191.086,198.814 193.752,201.147 196.5,203.5C 196.007,298.89 196.507,394.224 198,489.5C 200.256,494.757 204.09,498.257 209.5,500C 238.831,500.5 268.165,500.667 297.5,500.5C 294.173,501.827 291.84,504.16 290.5,507.5C 289.596,508.209 289.263,509.209 289.5,510.5C 263.165,510.667 236.831,510.5 210.5,510C 199.241,507.794 191.741,501.294 188,490.5C 186.843,392.799 186.009,295.132 185.5,197.5C 186.609,197.443 187.609,197.11 188.5,196.5 Z"/></g>
<g><path style="opacity:1" fill="#273047" d="M 454.5,201.5 C 454.167,201.5 453.833,201.5 453.5,201.5C 450.528,199.678 447.528,197.844 444.5,196C 443.304,195.346 443.304,194.846 444.5,194.5C 448.429,196.113 451.762,198.446 454.5,201.5 Z"/></g>
<g><path style="opacity:1" fill="#57524f" d="M 59.5,203.5 C 57.8042,203.315 56.4709,202.481 55.5,201C 57.4122,200.721 58.7456,201.554 59.5,203.5 Z"/></g>
<g><path style="opacity:1" fill="#f9f9fb" d="M 453.5,201.5 C 453.833,201.5 454.167,201.5 454.5,201.5C 462.513,206.172 470.18,211.338 477.5,217C 472.032,224.119 466.699,231.286 461.5,238.5C 459.621,237.659 457.621,237.325 455.5,237.5C 452.936,233.883 449.603,231.216 445.5,229.5C 448.775,220.341 451.442,211.008 453.5,201.5 Z"/></g>
<g><path style="opacity:1" fill="#504f57" d="M 69.5,202.5 C 69.7678,204.099 69.4345,205.432 68.5,206.5C 68.6495,205.448 68.4828,204.448 68,203.5C 65.0635,204.817 62.2301,204.817 59.5,203.5C 62.8806,203.54 66.2139,203.207 69.5,202.5 Z"/></g>
<g><path style="opacity:1" fill="#e1e1e1" d="M 211.5,227.5 C 264.833,227.5 318.167,227.5 371.5,227.5C 371.5,231.167 371.5,234.833 371.5,238.5C 318.167,238.5 264.833,238.5 211.5,238.5C 211.5,234.833 211.5,231.167 211.5,227.5 Z"/></g>
<g><path style="opacity:1" fill="#293237" d="M 445.5,229.5 C 449.603,231.216 452.936,233.883 455.5,237.5C 451.098,239.405 447.431,242.238 444.5,246C 444.667,247.5 445.5,248.333 447,248.5C 449.453,247.173 451.953,246.339 454.5,246C 451.93,248.067 449.93,250.567 448.5,253.5C 449.532,256.193 451.198,256.86 453.5,255.5C 453.418,257.252 454.251,258.252 456,258.5C 457.731,257.259 459.564,256.259 461.5,255.5C 460.766,256.708 460.433,258.041 460.5,259.5C 462.565,259.483 464.565,259.15 466.5,258.5C 467.638,261.719 468.471,265.053 469,268.5C 469.667,281.833 469.667,295.167 469,308.5C 464.389,364.944 458.889,421.277 452.5,477.5C 451.596,478.209 451.263,479.209 451.5,480.5C 446.167,480.5 440.833,480.5 435.5,480.5C 434.167,480.5 432.833,480.5 431.5,480.5C 423.167,480.5 414.833,480.5 406.5,480.5C 404.393,479.532 402.059,479.198 399.5,479.5C 399.294,475.102 399.627,470.768 400.5,466.5C 403.368,435.821 406.368,405.154 409.5,374.5C 410.525,371.026 411.192,367.36 411.5,363.5C 412.05,341.827 412.717,320.16 413.5,298.5C 416.282,286.345 413.115,276.345 404,268.5C 405.378,272.853 408.045,276.52 412,279.5C 412.499,283.152 412.665,286.818 412.5,290.5C 411.026,309.314 410.359,328.314 410.5,347.5C 409.805,355.401 409.138,363.401 408.5,371.5C 405.19,381.409 402.19,391.409 399.5,401.5C 395.463,412.614 391.796,423.947 388.5,435.5C 384.104,450.02 379.104,464.353 373.5,478.5C 363.845,479.427 354.179,479.427 344.5,478.5C 336.811,477.975 329.145,477.308 321.5,476.5C 319.167,476.5 316.833,476.5 314.5,476.5C 322.433,449.036 330.766,421.703 339.5,394.5C 347.808,369.241 356.142,343.907 364.5,318.5C 368.245,306.935 371.578,295.268 374.5,283.5C 379.24,268.286 385.906,253.953 394.5,240.5C 395.167,239.833 395.833,239.167 396.5,238.5C 399.599,245.432 404.766,250.098 412,252.5C 411.451,247.895 410.951,243.229 410.5,238.5C 412.502,242.833 413.502,247.5 413.5,252.5C 420.069,253.141 426.069,251.641 431.5,248C 437.524,242.751 442.19,236.584 445.5,229.5 Z"/></g>
<g><path style="opacity:1" fill="#2c3452" d="M 396.5,238.5 C 395.833,239.167 395.167,239.833 394.5,240.5C 392.434,234.677 390.934,228.677 390,222.5C 387.545,210.24 388.212,198.24 392,186.5C 390.615,197.752 390.282,209.085 391,220.5C 391.935,226.804 393.769,232.804 396.5,238.5 Z"/></g>
<g><path style="opacity:1" fill="#e9b89e" d="M 455.5,237.5 C 457.621,237.325 459.621,237.659 461.5,238.5C 467.506,241.173 471.84,245.506 474.5,251.5C 472.451,254.55 469.784,256.883 466.5,258.5C 464.565,259.15 462.565,259.483 460.5,259.5C 460.433,258.041 460.766,256.708 461.5,255.5C 459.564,256.259 457.731,257.259 456,258.5C 454.251,258.252 453.418,257.252 453.5,255.5C 451.198,256.86 449.532,256.193 448.5,253.5C 449.93,250.567 451.93,248.067 454.5,246C 451.953,246.339 449.453,247.173 447,248.5C 445.5,248.333 444.667,247.5 444.5,246C 447.431,242.238 451.098,239.405 455.5,237.5 Z"/></g>
<g><path style="opacity:1" fill="#2a3338" d="M 59.5,243.5 C 88.1134,252.384 117.447,256.384 147.5,255.5C 155.726,328.26 159.392,401.26 158.5,474.5C 148.833,474.5 139.167,474.5 129.5,474.5C 125.323,461.489 121.989,448.156 119.5,434.5C 118.656,425.79 117.489,417.124 116,408.5C 115.741,392.655 115.574,376.988 115.5,361.5C 115.145,353.612 114.145,345.946 112.5,338.5C 110.475,322.156 108.308,305.822 106,289.5C 105.5,282.842 105.334,276.175 105.5,269.5C 109.059,269.592 112.392,268.759 115.5,267C 111.804,267.003 108.137,267.503 104.5,268.5C 104.5,280.5 104.5,292.5 104.5,304.5C 103.503,323.326 103.17,342.326 103.5,361.5C 102.698,385.768 102.032,410.102 101.5,434.5C 101.34,447.839 101.007,461.172 100.5,474.5C 90.5,474.5 80.5,474.5 70.5,474.5C 67.9795,463.047 65.9795,451.38 64.5,439.5C 61.1965,413.609 60.5298,387.609 62.5,361.5C 62.6831,354.132 62.3498,346.799 61.5,339.5C 60.7276,315.658 59.7276,291.825 58.5,268C 58.6337,259.818 58.967,251.652 59.5,243.5 Z"/></g>
<g><path style="opacity:1" fill="#6a5f59" d="M 453.5,255.5 C 456.051,252.442 458.885,249.442 462,246.5C 460.49,250.517 457.657,253.517 453.5,255.5 Z"/></g>
<g><path style="opacity:1" fill="#dfe0df" d="M 212.5,252.5 C 265.5,252.5 318.5,252.5 371.5,252.5C 371.5,255.833 371.5,259.167 371.5,262.5C 318.5,262.5 265.5,262.5 212.5,262.5C 212.5,259.167 212.5,255.833 212.5,252.5 Z"/></g>
<g><path style="opacity:1" fill="#5d5652" d="M 461.5,255.5 C 462.804,253.018 464.804,251.851 467.5,252C 465.609,253.442 463.609,254.609 461.5,255.5 Z"/></g>
<g><path style="opacity:1" fill="#e1e1e1" d="M 210.5,276.5 C 247.5,276.5 284.5,276.5 321.5,276.5C 321.5,315.5 321.5,354.5 321.5,393.5C 284.5,393.5 247.5,393.5 210.5,393.5C 210.5,354.5 210.5,315.5 210.5,276.5 Z"/></g>
<g><path style="opacity:1" fill="#dfdfdf" d="M 364.5,318.5 C 356.142,343.907 347.808,369.241 339.5,394.5C 338.081,393.549 336.415,393.216 334.5,393.5C 334.5,354.833 334.5,316.167 334.5,277.5C 344.167,277.5 353.833,277.5 363.5,277.5C 363.171,291.344 363.504,305.01 364.5,318.5 Z"/></g>
<g><path style="opacity:1" fill="#d7d9d9" d="M 413.5,298.5 C 412.527,296.052 412.194,293.385 412.5,290.5C 412.665,286.818 412.499,283.152 412,279.5C 408.045,276.52 405.378,272.853 404,268.5C 413.115,276.345 416.282,286.345 413.5,298.5 Z"/></g>
<g><path style="opacity:1" fill="#f4f4f4" d="M 222.5,287.5 C 252.167,287.5 281.833,287.5 311.5,287.5C 311.5,302.167 311.5,316.833 311.5,331.5C 281.833,331.5 252.167,331.5 222.5,331.5C 222.5,316.833 222.5,302.167 222.5,287.5 Z"/></g>
<g><path style="opacity:1" fill="#f3f3f3" d="M 112.5,338.5 C 110.052,339.473 107.385,339.806 104.5,339.5C 104.5,327.833 104.5,316.167 104.5,304.5C 104.5,292.5 104.5,280.5 104.5,268.5C 108.137,267.503 111.804,267.003 115.5,267C 112.392,268.759 109.059,269.592 105.5,269.5C 105.334,276.175 105.5,282.842 106,289.5C 108.308,305.822 110.475,322.156 112.5,338.5 Z"/></g>
<g><path style="opacity:1" fill="#e0e0e0" d="M 251.5,294.5 C 255.182,294.335 258.848,294.501 262.5,295C 263.167,296 263.833,297 264.5,298C 271.492,298.5 278.492,298.666 285.5,298.5C 285.5,306.5 285.5,314.5 285.5,322.5C 273.5,322.5 261.5,322.5 249.5,322.5C 249.334,314.16 249.5,305.827 250,297.5C 250.513,296.473 251.013,295.473 251.5,294.5 Z"/></g>
<g><path style="opacity:1" fill="#a9adaf" d="M 412.5,290.5 C 412.194,293.385 412.527,296.052 413.5,298.5C 412.717,320.16 412.05,341.827 411.5,363.5C 410.512,358.36 410.179,353.026 410.5,347.5C 410.359,328.314 411.026,309.314 412.5,290.5 Z"/></g>
<g><path style="opacity:1" fill="#e0e0e0" d="M 61.5,339.5 C 62.3498,346.799 62.6831,354.132 62.5,361.5C 41.5,361.5 20.5,361.5 -0.5,361.5C -0.5,356.167 -0.5,350.833 -0.5,345.5C 0.977392,343.193 2.97739,341.36 5.5,340C 24.1637,339.5 42.8304,339.333 61.5,339.5 Z"/></g>
<g><path style="opacity:1" fill="#d3d3d4" d="M 104.5,304.5 C 104.5,316.167 104.5,327.833 104.5,339.5C 107.385,339.806 110.052,339.473 112.5,338.5C 114.145,345.946 115.145,353.612 115.5,361.5C 111.5,361.5 107.5,361.5 103.5,361.5C 103.17,342.326 103.503,323.326 104.5,304.5 Z"/></g>
<g><path style="opacity:1" fill="#f3f3f3" d="M 223.5,343.5 C 250.835,343.333 278.169,343.5 305.5,344C 306.833,345 306.833,346 305.5,347C 278.169,347.5 250.835,347.667 223.5,347.5C 223.5,346.167 223.5,344.833 223.5,343.5 Z"/></g>
<g><path style="opacity:1" fill="#f2f2f2" d="M -0.5,361.5 C 20.5,361.5 41.5,361.5 62.5,361.5C 60.5298,387.609 61.1965,413.609 64.5,439.5C 63.5655,438.432 63.2322,437.099 63.5,435.5C 44.4971,435.667 25.4971,435.5 6.5,435C 3.22804,433.233 0.894709,430.733 -0.5,427.5C -0.5,405.5 -0.5,383.5 -0.5,361.5 Z"/></g>
<g><path style="opacity:1" fill="#878c8f" d="M 410.5,347.5 C 410.179,353.026 410.512,358.36 411.5,363.5C 411.192,367.36 410.525,371.026 409.5,374.5C 409.737,373.209 409.404,372.209 408.5,371.5C 409.138,363.401 409.805,355.401 410.5,347.5 Z"/></g>
<g><path style="opacity:1" fill="#f4f4f4" d="M 223.5,372.5 C 245.169,372.333 266.836,372.5 288.5,373C 289.833,374 289.833,375 288.5,376C 266.833,376.667 245.167,376.667 223.5,376C 222.316,374.855 222.316,373.688 223.5,372.5 Z"/></g>
<g><path style="opacity:1" fill="#f5f6f6" d="M 408.5,371.5 C 409.404,372.209 409.737,373.209 409.5,374.5C 406.368,405.154 403.368,435.821 400.5,466.5C 399.503,445.006 399.169,423.34 399.5,401.5C 402.19,391.409 405.19,381.409 408.5,371.5 Z"/></g>
<g><path style="opacity:1" fill="#eeeeef" d="M 103.5,361.5 C 107.5,361.5 111.5,361.5 115.5,361.5C 115.574,376.988 115.741,392.655 116,408.5C 117.489,417.124 118.656,425.79 119.5,434.5C 113.5,434.5 107.5,434.5 101.5,434.5C 102.032,410.102 102.698,385.768 103.5,361.5 Z"/></g>
<g><path style="opacity:1" fill="#ddddde" d="M 399.5,401.5 C 399.169,423.34 399.503,445.006 400.5,466.5C 399.627,470.768 399.294,475.102 399.5,479.5C 402.059,479.198 404.393,479.532 406.5,480.5C 404.167,480.5 401.833,480.5 399.5,480.5C 399.535,491.264 395.202,499.764 386.5,506C 382.877,508.479 378.877,509.812 374.5,510C 364.172,510.5 353.839,510.666 343.5,510.5C 343.173,501.318 343.507,492.318 344.5,483.5C 344.5,489.5 344.5,495.5 344.5,501.5C 353.506,501.666 362.506,501.5 371.5,501C 380.653,500.181 386.487,495.347 389,486.5C 389.828,469.328 389.662,452.328 388.5,435.5C 391.796,423.947 395.463,412.614 399.5,401.5 Z"/></g>
<g><path style="opacity:1" fill="#fefefe" d="M -0.5,427.5 C 0.894709,430.733 3.22804,433.233 6.5,435C 25.4971,435.5 44.4971,435.667 63.5,435.5C 63.2322,437.099 63.5655,438.432 64.5,439.5C 65.9795,451.38 67.9795,463.047 70.5,474.5C 71.5676,475.434 72.901,475.768 74.5,475.5C 74.5,476.833 74.5,478.167 74.5,479.5C 70.6086,486.271 66.4419,492.937 62,499.5C 60.3303,503.49 60.1637,507.49 61.5,511.5C 40.8333,511.5 20.1667,511.5 -0.5,511.5C -0.5,483.5 -0.5,455.5 -0.5,427.5 Z"/></g>
<g><path style="opacity:1" fill="#fcfcfd" d="M 101.5,434.5 C 107.5,434.5 113.5,434.5 119.5,434.5C 121.989,448.156 125.323,461.489 129.5,474.5C 130.568,475.434 131.901,475.768 133.5,475.5C 133.5,477.167 133.5,478.833 133.5,480.5C 130.832,481.457 129.332,483.457 129,486.5C 128.199,494.912 128.366,503.245 129.5,511.5C 120.5,511.5 111.5,511.5 102.5,511.5C 103.902,500.748 102.235,490.415 97.5,480.5C 97.5,478.833 97.5,477.167 97.5,475.5C 98.791,475.737 99.791,475.404 100.5,474.5C 101.007,461.172 101.34,447.839 101.5,434.5 Z"/></g>
<g><path style="opacity:1" fill="#f2f2f2" d="M 388.5,435.5 C 389.662,452.328 389.828,469.328 389,486.5C 386.487,495.347 380.653,500.181 371.5,501C 362.506,501.5 353.506,501.666 344.5,501.5C 344.5,495.5 344.5,489.5 344.5,483.5C 344.5,481.833 344.5,480.167 344.5,478.5C 354.179,479.427 363.845,479.427 373.5,478.5C 379.104,464.353 384.104,450.02 388.5,435.5 Z"/></g>
<g><path style="opacity:1" fill="#e0e0e0" d="M 292.5,447.5 C 302.337,446.511 307.17,450.844 307,460.5C 303.826,467.505 298.659,469.672 291.5,467C 284.606,460.024 284.939,453.524 292.5,447.5 Z"/></g>
<g><path style="opacity:1" fill="#d7af9d" d="M 70.5,474.5 C 80.5,474.5 90.5,474.5 100.5,474.5C 99.791,475.404 98.791,475.737 97.5,475.5C 97.5,477.167 97.5,478.833 97.5,480.5C 92.3555,479.731 87.1889,479.065 82,478.5C 79.413,478.555 76.913,478.889 74.5,479.5C 74.5,478.167 74.5,476.833 74.5,475.5C 72.901,475.768 71.5676,475.434 70.5,474.5 Z"/></g>
<g><path style="opacity:1" fill="#deb39e" d="M 129.5,474.5 C 139.167,474.5 148.833,474.5 158.5,474.5C 157.602,475.158 156.602,475.824 155.5,476.5C 156.243,477.182 156.909,477.849 157.5,478.5C 151.591,480.489 145.424,481.823 139,482.5C 136.779,482.607 134.946,481.94 133.5,480.5C 133.5,478.833 133.5,477.167 133.5,475.5C 131.901,475.768 130.568,475.434 129.5,474.5 Z"/></g>
<g><path style="opacity:1" fill="#1e2987" d="M 321.5,476.5 C 329.145,477.308 336.811,477.975 344.5,478.5C 344.5,480.167 344.5,481.833 344.5,483.5C 343.507,492.318 343.173,501.318 343.5,510.5C 325.833,510.5 308.167,510.5 290.5,510.5C 290.5,509.5 290.5,508.5 290.5,507.5C 291.84,504.16 294.173,501.827 297.5,500.5C 309.811,496.856 317.811,488.856 321.5,476.5 Z"/></g>
<g><path style="opacity:1" fill="#222c88" d="M 97.5,480.5 C 102.235,490.415 103.902,500.748 102.5,511.5C 88.8333,511.5 75.1667,511.5 61.5,511.5C 60.1637,507.49 60.3303,503.49 62,499.5C 66.4419,492.937 70.6086,486.271 74.5,479.5C 76.913,478.889 79.413,478.555 82,478.5C 87.1889,479.065 92.3555,479.731 97.5,480.5 Z"/></g>
<g><path style="opacity:1" fill="#1f2a87" d="M 157.5,478.5 C 161.719,479.548 164.553,482.215 166,486.5C 172.418,491.258 179.084,495.591 186,499.5C 189.469,503.314 189.969,507.314 187.5,511.5C 168.167,511.5 148.833,511.5 129.5,511.5C 128.366,503.245 128.199,494.912 129,486.5C 129.332,483.457 130.832,481.457 133.5,480.5C 134.946,481.94 136.779,482.607 139,482.5C 145.424,481.823 151.591,480.489 157.5,478.5 Z"/></g>
<g><path style="opacity:1" fill="#fdfdfd" d="M 406.5,480.5 C 405.834,490.486 405.501,500.486 405.5,510.5C 405.5,510.833 405.5,511.167 405.5,511.5C 384.833,511.5 364.167,511.5 343.5,511.5C 343.5,511.167 343.5,510.833 343.5,510.5C 353.839,510.666 364.172,510.5 374.5,510C 378.877,509.812 382.877,508.479 386.5,506C 395.202,499.764 399.535,491.264 399.5,480.5C 401.833,480.5 404.167,480.5 406.5,480.5 Z"/></g>
<g><path style="opacity:1" fill="#1f2a87" d="M 406.5,480.5 C 414.833,480.5 423.167,480.5 431.5,480.5C 431.133,484.967 431.633,489.3 433,493.5C 437.667,497.5 442.333,501.5 447,505.5C 447.791,506.745 448.291,508.078 448.5,509.5C 434.343,510.496 420.01,510.829 405.5,510.5C 405.501,500.486 405.834,490.486 406.5,480.5 Z"/></g>
<g><path style="opacity:1" fill="#b4b7b9" d="M 452.5,477.5 C 452.5,478.833 452.5,480.167 452.5,481.5C 446.642,481.822 440.975,481.489 435.5,480.5C 440.833,480.5 446.167,480.5 451.5,480.5C 451.263,479.209 451.596,478.209 452.5,477.5 Z"/></g>
<g><path style="opacity:1" fill="#545da3" d="M 290.5,507.5 C 290.5,508.5 290.5,509.5 290.5,510.5C 308.167,510.5 325.833,510.5 343.5,510.5C 343.5,510.833 343.5,511.167 343.5,511.5C 325.5,511.5 307.5,511.5 289.5,511.5C 289.5,511.167 289.5,510.833 289.5,510.5C 289.263,509.209 289.596,508.209 290.5,507.5 Z"/></g>
<g><path style="opacity:1" fill="#545da3" d="M 448.5,509.5 C 449.338,509.842 449.672,510.508 449.5,511.5C 434.833,511.5 420.167,511.5 405.5,511.5C 405.5,511.167 405.5,510.833 405.5,510.5C 420.01,510.829 434.343,510.496 448.5,509.5 Z"/></g>
</svg>
