<?xml version="1.0" encoding="UTF-8"?>
<!DOCTYPE svg PUBLIC "-//W3C//DTD SVG 1.1//EN" "http://www.w3.org/Graphics/SVG/1.1/DTD/svg11.dtd">
<svg xmlns="http://www.w3.org/2000/svg" version="1.1" width="700px" height="600px" style="shape-rendering:geometricPrecision; text-rendering:geometricPrecision; image-rendering:optimizeQuality; fill-rule:evenodd; clip-rule:evenodd" xmlns:xlink="http://www.w3.org/1999/xlink">
<g><path style="opacity:0.982" fill="#333436" d="M 379.5,151.5 C 379.5,157.833 379.5,164.167 379.5,170.5C 367.988,170.172 356.654,170.505 345.5,171.5C 342.737,171.744 340.571,173.077 339,175.5C 340.406,302.178 342.739,428.845 346,555.5C 346.785,557.286 347.951,558.786 349.5,560C 429.182,559.84 508.849,558.507 588.5,556C 590.286,555.215 591.786,554.049 593,552.5C 593.239,508.499 592.906,464.499 592,420.5C 590.062,337.839 588.395,255.173 587,172.5C 585.74,169.572 583.573,167.739 580.5,167C 568.838,166.5 557.171,166.333 545.5,166.5C 545.802,169.059 545.468,171.393 544.5,173.5C 544.174,164.983 544.507,156.65 545.5,148.5C 563.489,147.485 581.489,147.318 599.5,148C 609.357,150.876 615.19,157.376 617,167.5C 619.68,302.206 622.514,436.872 625.5,571.5C 624.127,582.706 618.127,590.206 607.5,594C 532.679,595.989 458.012,597.823 383.5,599.5C 366.5,599.5 349.5,599.5 332.5,599.5C 324.092,596.255 318.592,590.255 316,581.5C 315.358,554.026 314.358,526.693 313,499.5C 289.584,514.458 266.084,529.292 242.5,544C 232.886,547.219 224.386,545.386 217,538.5C 146.154,427.471 75.8208,316.138 6,204.5C 4.28491,196.365 5.95158,189.031 11,182.5C 25.1146,172.549 39.6146,163.216 54.5,154.5C 58.5746,158.976 61.9079,163.976 64.5,169.5C 54.646,176.02 44.8126,182.687 35,189.5C 34.3333,192.167 34.3333,194.833 35,197.5C 99.3333,298.833 163.667,400.167 228,501.5C 230.317,504.097 233.15,504.93 236.5,504C 262.085,487.958 287.585,471.792 313,455.5C 312.388,364.149 310.721,272.816 308,181.5C 284.124,142.909 259.624,104.742 234.5,67C 231.833,66.3333 229.167,66.3333 226.5,67C 217.472,72.8438 208.472,78.6772 199.5,84.5C 195.669,79.5112 192.336,74.1778 189.5,68.5C 204.138,58.8425 219.138,49.6758 234.5,41C 245.049,38.8478 253.549,42.0144 260,50.5C 281.667,84.8333 303.333,119.167 325,153.5C 343.075,151.971 361.242,151.305 379.5,151.5 Z"/></g>
<g><path style="opacity:0.983" fill="#0a0979" d="M 189.5,68.5 C 192.336,74.1778 195.669,79.5112 199.5,84.5C 203.969,90.3226 203.302,95.4893 197.5,100C 159.664,123.75 121.997,147.75 84.5,172C 76.7433,178.648 70.0766,177.815 64.5,169.5C 61.9079,163.976 58.5746,158.976 54.5,154.5C 51.3853,149.136 52.052,144.303 56.5,140C 96.6649,114.417 136.998,89.0832 177.5,64C 182.823,62.3107 186.823,63.8107 189.5,68.5 Z"/></g>
<g><path style="opacity:1" fill="#f9f8f8" d="M 64.5,169.5 C 70.0766,177.815 76.7433,178.648 84.5,172C 121.997,147.75 159.664,123.75 197.5,100C 203.302,95.4893 203.969,90.3226 199.5,84.5C 208.472,78.6772 217.472,72.8438 226.5,67C 229.167,66.3333 231.833,66.3333 234.5,67C 259.624,104.742 284.124,142.909 308,181.5C 310.721,272.816 312.388,364.149 313,455.5C 287.585,471.792 262.085,487.958 236.5,504C 233.15,504.93 230.317,504.097 228,501.5C 163.667,400.167 99.3333,298.833 35,197.5C 34.3333,194.833 34.3333,192.167 35,189.5C 44.8126,182.687 54.646,176.02 64.5,169.5 Z"/></g>
<g><path style="opacity:0.985" fill="#0a0979" d="M 545.5,148.5 C 544.507,156.65 544.174,164.983 544.5,173.5C 544.089,177.079 542.089,179.246 538.5,180C 487.171,181.318 435.837,181.985 384.5,182C 382.072,180.982 380.738,179.148 380.5,176.5C 380.795,174.265 380.461,172.265 379.5,170.5C 379.5,164.167 379.5,157.833 379.5,151.5C 378.775,144.062 382.108,140.229 389.5,140C 439.495,138.654 489.495,137.987 539.5,138C 543.421,140.335 545.421,143.835 545.5,148.5 Z"/></g>
<g><path style="opacity:1" fill="#f9f8f8" d="M 345.5,171.5 C 356.833,171.5 368.167,171.5 379.5,171.5C 379.216,173.415 379.549,175.081 380.5,176.5C 380.738,179.148 382.072,180.982 384.5,182C 435.837,181.985 487.171,181.318 538.5,180C 542.089,179.246 544.089,177.079 544.5,173.5C 545.468,171.393 545.802,169.059 545.5,166.5C 557.171,166.333 568.838,166.5 580.5,167C 583.573,167.739 585.74,169.572 587,172.5C 588.395,255.173 590.062,337.839 592,420.5C 592.906,464.499 593.239,508.499 593,552.5C 591.786,554.049 590.286,555.215 588.5,556C 508.849,558.507 429.182,559.84 349.5,560C 347.951,558.786 346.785,557.286 346,555.5C 342.739,428.845 340.406,302.178 339,175.5C 340.571,173.077 342.737,171.744 345.5,171.5 Z"/></g>
<g><path style="opacity:1" fill="#adacb6" d="M 345.5,171.5 C 356.654,170.505 367.988,170.172 379.5,170.5C 380.461,172.265 380.795,174.265 380.5,176.5C 379.549,175.081 379.216,173.415 379.5,171.5C 368.167,171.5 356.833,171.5 345.5,171.5 Z"/></g>
</svg>
